{
  "accessors": [
    {
      "bufferView": 1,
      "componentType": 5126,
      "count": 65532,
      "max": [
        167.95318603515625,
        220.999267578125,
        56
      ],
      "min": [
        62.953189849853516,
        62.9981689453125,
        5
      ],
      "type": "VEC3"
    },
    {
      "bufferView": 1,
      "byteOffset": 786384,
      "componentType": 5126,
      "count": 65532,
      "max": [
        1,
        1,
        1
      ],
      "min": [
        -1,
        -1,
        -1
      ],
      "type": "VEC3"
    },
    {
      "bufferView": 1,
      "byteOffset": 1572768,
      "componentType": 5126,
      "count": 65532,
      "max": [
        1,
        0.98039001226425171,
        0.84314000606536865
      ],
      "min": [
        0.29412001371383667,
        0.34117999672889709,
        0
      ],
      "type": "VEC3"
    },
    {
      "bufferView": 0,
      "componentType": 5125,
      "count": 201000,
      "max": [
        65531
      ],
      "min": [
        0
      ],
      "type": "SCALAR"
    },
    {
      "bufferView": 1,
      "byteOffset": 2359152,
      "componentType": 5126,
      "count": 65532,
      "max": [
        168.95318603515625,
        188.99818420410156,
        56
      ],
      "min": [
        62.953189849853516,
        -62.913021087646484,
        3
      ],
      "type": "VEC3"
    },
    {
      "bufferView": 1,
      "byteOffset": 3145536,
      "componentType": 5126,
      "count": 65532,
      "max": [
        1,
        1,
        1
      ],
      "min": [
        -1,
        -1,
        -1
      ],
      "type": "VEC3"
    },
    {
      "bufferView": 1,
      "byteOffset": 3931920,
      "componentType": 5126,
      "count": 65532,
      "max": [
        0.99216002225875854,
        0.97254997491836548,
        0.9333299994468689
      ],
      "min": [
        0.32548999786376953,
        0.33333000540733337,
        0.18039000034332275
      ],
      "type": "VEC3"
    },
    {
      "bufferView": 0,
      "byteOffset": 804000,
      "componentType": 5125,
      "count": 192879,
      "max": [
        65531
      ],
      "min": [
        0
      ],
      "type": "SCALAR"
    },
    {
      "bufferView": 1,
      "byteOffset": 4718304,
      "componentType": 5126,
      "count": 65534,
      "max": [
        168.95318603515625,
        241.92041015625,
        87
      ],
      "min": [
        -38,
        -62.913021087646484,
        5
      ],
      "type": "VEC3"
    },
    {
      "bufferView": 1,
      "byteOffset": 5504712,
      "componentType": 5126,
      "count": 65534,
      "max": [
        1,
        1,
        1
      ],
      "min": [
        -1,
        -1,
        -1
      ],
      "type": "VEC3"
    },
    {
      "bufferView": 1,
      "byteOffset": 6291120,
      "componentType": 5126,
      "count": 65534,
      "max": [
        0.98430997133255005,
        0.96078002452850342,
        0.9333299994468689
      ],
      "min": [
        0.17254999279975891,
        0.37646999955177307,
        0.18039000034332275
      ],
      "type": "VEC3"
    },
    {
      "bufferView": 0,
      "byteOffset": 1575516,
      "componentType": 5125,
      "count": 197145,
      "max": [
        65533
      ],
      "min": [
        0
      ],
      "type": "SCALAR"
    },
    {
      "bufferView": 1,
      "byteOffset": 7077528,
      "componentType": 5126,
      "count": 65532,
      "max": [
        63,
        241.92041015625,
        87
      ],
      "min": [
        -63,
        62.980209350585938,
        4
      ],
      "type": "VEC3"
    },
    {
      "bufferView": 1,
      "byteOffset": 7863912,
      "componentType": 5126,
      "count": 65532,
      "max": [
        1,
        1,
        1
      ],
      "min": [
        -1,
        -1,
        -1
      ],
      "type": "VEC3"
    },
    {
      "bufferView": 1,
      "byteOffset": 8650296,
      "componentType": 5126,
      "count": 65532,
      "max": [
        0.98430997133255005,
        0.96078002452850342,
        0.9333299994468689
      ],
      "min": [
        0.17254999279975891,
        0.26666998863220215,
        0.15294000506401062
      ],
      "type": "VEC3"
    },
    {
      "bufferView": 0,
      "byteOffset": 2364096,
      "componentType": 5125,
      "count": 196074,
      "max": [
        65531
      ],
      "min": [
        0
      ],
      "type": "SCALAR"
    },
    {
      "bufferView": 1,
      "byteOffset": 9436680,
      "componentType": 5126,
      "count": 65532,
      "max": [
        63,
        117.98020935058594,
        65
      ],
      "min": [
        -63,
        -62,
        3
      ],
      "type": "VEC3"
    },
    {
      "bufferView": 1,
      "byteOffset": 10223064,
      "componentType": 5126,
      "count": 65532,
      "max": [
        1,
        1,
        1
      ],
      "min": [
        -1,
        -1,
        -1
      ],
      "type": "VEC3"
    },
    {
      "bufferView": 1,
      "byteOffset": 11009448,
      "componentType": 5126,
      "count": 65532,
      "max": [
        0.98430997133255005,
        0.96078002452850342,
        0.90587997436523438
      ],
      "min": [
        0.17254999279975891,
        0.41176000237464905,
        0.26274999976158142
      ],
      "type": "VEC3"
    },
    {
      "bufferView": 0,
      "byteOffset": 3148392,
      "componentType": 5125,
      "count": 203043,
      "max": [
        65531
      ],
      "min": [
        0
      ],
      "type": "SCALAR"
    },
    {
      "bufferView": 1,
      "byteOffset": 11795832,
      "componentType": 5126,
      "count": 13491,
      "max": [
        63,
        63,
        54
      ],
      "min": [
        -28,
        -62,
        6
      ],
      "type": "VEC3"
    },
    {
      "bufferView": 1,
      "byteOffset": 11957724,
      "componentType": 5126,
      "count": 13491,
      "max": [
        -0,
        0,
        1
      ],
      "min": [
        -0,
        0,
        -1
      ],
      "type": "VEC3"
    },
    {
      "bufferView": 1,
      "byteOffset": 12119616,
      "componentType": 5126,
      "count": 13491,
      "max": [
        0.98430997133255005,
        0.95293998718261719,
        0.90587997436523438
      ],
      "min": [
        0.17254999279975891,
        0.26666998863220215,
        0.15294000506401062
      ],
      "type": "VEC3"
    },
    {
      "bufferView": 0,
      "byteOffset": 3960564,
      "componentType": 5125,
      "count": 53307,
      "max": [
        13490
      ],
      "min": [
        0
      ],
      "type": "SCALAR"
    }
  ],
  "asset": {
    "extras": {
      "author": "mkrenzer (https://sketchfab.com/mkrenzer)",
      "license": "CC-BY-4.0 (http://creativecommons.org/licenses/by/4.0/)",
      "source": "https://sketchfab.com/3d-models/skyloft-79974efdac8c4733bae8dba3a4d2ec4f",
      "title": "Skyloft"
    },
    "generator": "Sketchfab-6.34.0",
    "version": "2.0"
  },
  "bufferViews": [
    {
      "buffer": 0,
      "byteLength": 4173792,
      "byteOffset": 0,
      "name": "floatBufferViews",
      "target": 34963
    },
    {
      "buffer": 0,
      "byteLength": 12281508,
      "byteOffset": 4173792,
      "byteStride": 12,
      "name": "floatBufferViews",
      "target": 34962
    }
  ],
  "buffers": [
    {
      "byteLength": 16455300,
      "uri": "scene.bin"
    }
  ],
  "materials": [
    {
      "doubleSided": true,
      "emissiveFactor": [
        0,
        0,
        0
      ],
      "name": "Scene_-_Root",
      "pbrMetallicRoughness": {
        "baseColorFactor": [
          1,
          1,
          1,
          1
        ],
        "metallicFactor": 0,
        "roughnessFactor": 0.59999999999999998
      }
    }
  ],
  "meshes": [
    {
      "name": "1_0",
      "primitives": [
        {
          "attributes": {
            "COLOR_0": 2,
            "NORMAL": 1,
            "POSITION": 0
          },
          "indices": 3,
          "material": 0,
          "mode": 4
        }
      ]
    },
    {
      "name": "1_0",
      "primitives": [
        {
          "attributes": {
            "COLOR_0": 6,
            "NORMAL": 5,
            "POSITION": 4
          },
          "indices": 7,
          "material": 0,
          "mode": 4
        }
      ]
    },
    {
      "name": "1_0",
      "primitives": [
        {
          "attributes": {
            "COLOR_0": 10,
            "NORMAL": 9,
            "POSITION": 8
          },
          "indices": 11,
          "material": 0,
          "mode": 4
        }
      ]
    },
    {
      "name": "1_0",
      "primitives": [
        {
          "attributes": {
            "COLOR_0": 14,
            "NORMAL": 13,
            "POSITION": 12
          },
          "indices": 15,
          "material": 0,
          "mode": 4
        }
      ]
    },
    {
      "name": "1_0",
      "primitives": [
        {
          "attributes": {
            "COLOR_0": 18,
            "NORMAL": 17,
            "POSITION": 16
          },
          "indices": 19,
          "material": 0,
          "mode": 4
        }
      ]
    },
    {
      "name": "1_0",
      "primitives": [
        {
          "attributes": {
            "COLOR_0": 22,
            "NORMAL": 21,
            "POSITION": 20
          },
          "indices": 23,
          "material": 0,
          "mode": 4
        }
      ]
    }
  ],
  "nodes": [
    {
      "children": [
        1
      ],
      "name": "RootNode (gltf orientation matrix)",
      "rotation": [
        -0.70710678118654746,
        -0,
        -0,
        0.70710678118654757
      ]
    },
    {
      "children": [
        2
      ],
      "name": "RootNode (model correction matrix)"
    },
    {
      "children": [
        3
      ],
      "name": "Root"
    },
    {
      "children": [
        4,
        5,
        6,
        7,
        8,
        9
      ],
      "matrix": [
        0.10000000000000001,
        0,
        0,
        0,
        0,
        0.10000000000000001,
        0,
        0,
        0,
        0,
        0.10000000000000001,
        0,
        -12.595319999999999,
        -0.0087000000000000029,
        0,
        1
      ],
      "name": "1"
    },
    {
      "mesh": 0,
      "name": "1_0"
    },
    {
      "mesh": 1,
      "name": "1_0"
    },
    {
      "mesh": 2,
      "name": "1_0"
    },
    {
      "mesh": 3,
      "name": "1_0"
    },
    {
      "mesh": 4,
      "name": "1_0"
    },
    {
      "mesh": 5,
      "name": "1_0"
    }
  ],
  "scene": 0,
  "scenes": [
    {
      "name": "OSG_Scene",
      "nodes": [
        0
      ]
    }
  ]
}

